<svg width="30" height="30" viewBox="0 0 30 30" fill="none" xmlns="http://www.w3.org/2000/svg">
<path d="M10.5015 14.1025V10.5034C10.5003 9.38771 10.9138 8.31142 11.6616 7.48345C12.4094 6.65548 13.4382 6.13491 14.5482 6.02279C15.6582 5.91066 16.7703 6.21499 17.6686 6.87669C18.7178 7.64964 19.5002 9.39 19.5002 10.5034V14.1025M19.5002 14.1025H8.70188C7.70802 14.1025 6.90234 14.9082 6.90234 15.9021V22.2005C6.90234 23.1943 7.70802 24 8.70188 24H21.2987C22.2925 24 23.0982 23.1943 23.0982 22.2005V15.9021C23.0982 14.9082 22.2925 14.1025 21.2987 14.1025H19.5002Z" stroke="#111111" stroke-width="1.5" stroke-linecap="round" stroke-linejoin="round"/>
</svg>
