<svg width="44" height="44" viewBox="0 0 44 44" fill="none" xmlns="http://www.w3.org/2000/svg">
<path d="M18.4375 16.75H30.4375M18.4375 22H30.4375M18.4375 27.25H30.4375M13.9375 16.75H13.9445V16.758H13.9375V16.75ZM14.3125 16.75C14.3125 16.8495 14.273 16.9448 14.2027 17.0152C14.1323 17.0855 14.037 17.125 13.9375 17.125C13.838 17.125 13.7427 17.0855 13.6723 17.0152C13.602 16.9448 13.5625 16.8495 13.5625 16.75C13.5625 16.6505 13.602 16.5552 13.6723 16.4848C13.7427 16.4145 13.838 16.375 13.9375 16.375C14.037 16.375 14.1323 16.4145 14.2027 16.4848C14.273 16.5552 14.3125 16.6505 14.3125 16.75ZM13.9375 22H13.9445V22.008H13.9375V22ZM14.3125 22C14.3125 22.0995 14.273 22.1948 14.2027 22.2652C14.1323 22.3355 14.037 22.375 13.9375 22.375C13.838 22.375 13.7427 22.3355 13.6723 22.2652C13.602 22.1948 13.5625 22.0995 13.5625 22C13.5625 21.9005 13.602 21.8052 13.6723 21.7348C13.7427 21.6645 13.838 21.625 13.9375 21.625C14.037 21.625 14.1323 21.6645 14.2027 21.7348C14.273 21.8052 14.3125 21.9005 14.3125 22ZM13.9375 27.25H13.9445V27.258H13.9375V27.25ZM14.3125 27.25C14.3125 27.3495 14.273 27.4448 14.2027 27.5152C14.1323 27.5855 14.037 27.625 13.9375 27.625C13.838 27.625 13.7427 27.5855 13.6723 27.5152C13.602 27.4448 13.5625 27.3495 13.5625 27.25C13.5625 27.1505 13.602 27.0552 13.6723 26.9848C13.7427 26.9145 13.838 26.875 13.9375 26.875C14.037 26.875 14.1323 26.9145 14.2027 26.9848C14.273 27.0552 14.3125 27.1505 14.3125 27.25Z" stroke="#111111" stroke-width="1.5" stroke-linecap="round" stroke-linejoin="round"/>
</svg>
