<svg width="44" height="44" viewBox="0 0 44 44" fill="none" xmlns="http://www.w3.org/2000/svg">
<path fill-rule="evenodd" clip-rule="evenodd" d="M28.2334 13.0156C28.9366 13.0856 29.5988 13.3957 30.1026 13.8994C30.6779 14.4751 31.0009 15.2569 31.001 16.0713C31.001 16.8799 30.6813 17.6553 30.1143 18.2295C30.1069 18.2361 30.0984 18.2438 30.0899 18.252L30.085 18.2578L28.25 20.0918L29.2901 21.1318L29.3858 21.2529C29.4417 21.3395 29.4799 21.436 29.4991 21.5371L29.5137 21.6914C29.5119 21.8997 29.428 22.1003 29.2803 22.248C29.1698 22.3585 29.0291 22.4335 28.878 22.4648L28.7237 22.4814C28.5157 22.4831 28.3143 22.4026 28.1641 22.2578L28.1446 22.2393L27.1241 21.2178L19.8936 28.4502C19.8174 28.526 19.7252 28.5868 19.6231 28.627L19.6192 28.6289C19.1514 28.8145 18.6765 29.0487 17.5977 29.6045C17.0866 29.8677 16.8468 29.9872 16.5752 30.1221L16.542 30.1396C15.5372 30.6346 14.9019 30.9115 14.4278 30.9824C14.2035 31.0159 14.0299 31.0002 13.878 30.9463C13.7249 30.8918 13.5679 30.7886 13.3897 30.6104C13.2115 30.4321 13.1091 30.2757 13.0547 30.123C13.0007 29.9713 12.9845 29.7979 13.0176 29.5742L13.0538 29.3896C13.16 28.9386 13.4245 28.345 13.8545 27.4707L13.8536 27.4697C13.9964 27.1807 14.1182 26.9421 14.3965 26.4023C14.9533 25.3218 15.1873 24.8472 15.3721 24.377L15.375 24.3682C15.4143 24.2728 15.4738 24.1834 15.5499 24.1074L22.7803 16.876L21.7354 15.8291L21.7344 15.8281L21.6456 15.7227C21.5678 15.6121 21.5193 15.4831 21.5049 15.3496L21.501 15.2568C21.503 15.0481 21.5864 14.8474 21.7334 14.7002L21.7344 14.7012C21.8828 14.5532 22.0853 14.469 22.2969 14.4688C22.5087 14.4689 22.7128 14.5527 22.8614 14.7012L23.9082 15.748L25.7569 13.9004C25.7582 13.8992 25.7602 13.8979 25.7618 13.8965C25.7671 13.8915 25.7752 13.8837 25.7842 13.875L25.7881 13.8711C26.3614 13.3133 27.1299 13 27.9297 13L28.2334 13.0156ZM16.9122 24.9971L16.7891 25.1191L16.7208 25.2793C16.5592 25.6533 16.3532 26.0723 15.9854 26.79L14.6973 29.3027L17.21 28.0146C17.9284 27.6462 18.3459 27.4396 18.7198 27.2783L18.8799 27.21L25.9981 20.0918L23.9063 18L16.9122 24.9971ZM26.9297 14.9834C26.9272 14.9854 26.9243 14.9883 26.9209 14.9912L26.877 15.0322L26.8692 15.0391L25.0332 16.874L27.1241 18.9648L29.0098 17.082L29.0401 17.043L29.1036 16.9639L29.1329 16.9277L29.1583 16.8877C29.3166 16.6424 29.3957 16.3575 29.3936 16.0732C29.3904 15.6892 29.2382 15.3162 28.9629 15.04L28.8555 14.9424C28.5944 14.728 28.2663 14.6109 27.9297 14.6074C27.5442 14.6041 27.1693 14.7514 26.8897 15.0205L26.9239 14.9893C26.9261 14.9873 26.9278 14.9849 26.9297 14.9834Z" fill="#111111"/>
<path fill-rule="evenodd" clip-rule="evenodd" d="M19.33 27.8884C17.5557 28.589 14.4882 30.584 13.9525 30.0494C13.6044 29.7014 14.3198 28.291 15.058 26.8579H20.3582L19.33 27.8884Z" fill="#111111"/>
</svg>
